<svg xmlns="http://www.w3.org/2000/svg" xmlns:xlink="http://www.w3.org/1999/xlink" fill="none" version="1.1"
    width="181.01123046875" height="180" viewBox="0 0 181.01123046875 180">
    <defs>
        <mask id="master_svg0_20_642" style="mask-type:alpha" maskUnits="userSpaceOnUse">
            <g>
                <rect x="68.22732543945312" y="44.769287109375" width="109.07088470458984" height="109.38462829589844"
                    rx="0" fill="#FFFFFF" fill-opacity="1" />
            </g>
        </mask>
        <mask id="master_svg1_20_646" style="mask-type:alpha" maskUnits="userSpaceOnUse">
            <g>
                <rect x="68.22732543945312" y="44.769287109375" width="109.07088470458984" height="109.38462829589844"
                    rx="0" fill="#FFFFFF" fill-opacity="1" />
            </g>
        </mask>
        <mask id="master_svg2_20_659" style="mask-type:alpha" maskUnits="userSpaceOnUse">
            <g>
                <rect x="39.915313720703125" y="53.076904296875" width="36.6663818359375" height="23.07692527770996"
                    rx="0" fill="#FFFFFF" fill-opacity="1" />
            </g>
        </mask>
        <mask id="master_svg3_20_663" style="mask-type:alpha" maskUnits="userSpaceOnUse">
            <g>
                <rect x="39.915313720703125" y="53.076904296875" width="36.6663818359375" height="23.07692527770996"
                    rx="0" fill="#FFFFFF" fill-opacity="1" />
            </g>
        </mask>
        <mask id="master_svg4_20_668" style="mask-type:alpha" maskUnits="userSpaceOnUse">
            <g>
                <rect x="53.8392333984375" y="79.384521484375" width="64.05012512207031" height="53.53846740722656"
                    rx="0" fill="#FFFFFF" fill-opacity="1" />
            </g>
        </mask>
        <mask id="master_svg5_20_672" style="mask-type:alpha" maskUnits="userSpaceOnUse">
            <g>
                <rect x="53.8392333984375" y="79.384521484375" width="64.05012512207031" height="53.53846740722656"
                    rx="0" fill="#FFFFFF" fill-opacity="1" />
            </g>
        </mask>
    </defs>
    <g>
        <g>
            <g mask="url(#master_svg0_20_642)">
                <g>
                    <g>
                        <g mask="url(#master_svg1_20_646)">
                            <g>
                                <path
                                    d="M101.64474487304688,134.7692C101.64474487304688,117.77590000000001,115.25554487304687,103.9998,132.04534487304687,103.9998C148.8353448730469,103.9998,162.44594487304687,117.77590000000001,162.44594487304687,134.7692L101.64474487304688,134.7692ZM132.04534487304687,100.1539C119.44804487304688,100.1539,109.24489487304687,89.8269,109.24489487304687,77.0769C109.24489487304687,64.3269,119.44804487304688,54,132.04534487304687,54C144.6426448730469,54,154.84584487304687,64.3269,154.84584487304687,77.0769C154.84584487304687,89.8269,144.6426448730469,100.1539,132.04534487304687,100.1539Z"
                                    fill="#5D94F3" fill-opacity="1" />
                            </g>
                        </g>
                    </g>
                </g>
            </g>
            <g>
                <rect x="85.86431884765625" y="76.15380859375" width="36.6663818359375" height="2.307692766189575"
                    rx="0" fill="#5D94F3" fill-opacity="1" />
            </g>
            <g>
                <rect x="85.86431884765625" y="64.615478515625" width="36.6663818359375" height="2.307692766189575"
                    rx="0" fill="#5D94F3" fill-opacity="1" />
            </g>
            <g>
                <rect x="85.86431884765625" y="53.076904296875" width="36.6663818359375" height="2.307692766189575"
                    rx="0" fill="#5D94F3" fill-opacity="1" />
            </g>
        </g>
        <g>
            <g>
                <g>
                    <ellipse cx="90" cy="90.00000762939453" rx="90" ry="90.00000762939453" fill="#E4EBF7"
                        fill-opacity="1" />
                </g>
            </g>
            <g>
                <rect x="39.915313720703125" y="99.230712890625" width="82.61539459228516" height="2.307692766189575"
                    rx="0" fill="#5D94F3" fill-opacity="1" />
            </g>
            <g>
                <rect x="39.915313720703125" y="87.692138671875" width="82.61539459228516" height="2.307692766189575"
                    rx="0" fill="#5D94F3" fill-opacity="1" />
            </g>
            <g mask="url(#master_svg2_20_659)">
                <g>
                    <g>
                        <g mask="url(#master_svg3_20_663)">
                            <g>
                                <path
                                    d="M76.58171372070314,64.615404296875L67.93911372070312,71.867904296875L65.77881372070313,70.055104296875L72.26121372070313,64.615404296875L65.77881372070313,59.175624296875L67.93911372070312,57.362804296875L76.58171372070314,64.615404296875ZM44.23583372070313,64.615404296875L50.71811372070312,70.055104296875L48.55790372070312,71.867904296875L39.915313720703125,64.615404296875L48.55790372070312,57.362804296875L50.71661372070312,59.175624296875L44.23583372070313,64.615404296875ZM54.869113720703126,76.153804296875L51.618013720703125,76.153804296875L61.62791372070312,53.076904296875L64.87901372070313,53.076904296875L54.869113720703126,76.153804296875Z"
                                    fill="#5D94F3" fill-opacity="1" />
                            </g>
                        </g>
                    </g>
                </g>
            </g>
            <g>
                <g>
                    <rect x="28.776153564453125" y="43.84619140625" width="102.10890197753906"
                        height="70.61540222167969" rx="17" fill-opacity="0" stroke-opacity="1" stroke="#5D94F3"
                        fill="none" stroke-width="6" />
                </g>
            </g>
            <g mask="url(#master_svg4_20_668)">
                <g>
                    <g>
                        <g mask="url(#master_svg5_20_672)">
                            <g>
                                <path
                                    d="M89.86582001953124,124.413547265625C101.78892001953125,124.413547265625,112.21772001953124,128.673247265625,117.88942001953126,135.028747265625L111.89192001953126,137.384447265625C107.27512001953124,132.841047265625,99.13542001953125,129.822647265625,89.86582001953124,129.822647265625C80.59622001953124,129.822647265625,72.45652001953125,132.841047265625,67.83964001953125,137.384447265625L61.84552001953125,135.025947265625C67.51730001953125,128.670447265625,77.94272001953125,124.413547265625,89.86582001953124,124.413547265625ZM89.86582001953124,83.845947265625C98.85672001953125,83.845947265625,106.14532001953125,89.900177265625,106.14532001953125,97.36844726562501L106.14532001953125,105.482047265625C106.14532001953125,112.950347265625,98.85672001953125,119.004547265625,89.86582001953124,119.004547265625C80.87492001953125,119.004547265625,73.58632001953126,112.950347265625,73.58632001953126,105.482047265625L73.58632001953126,97.36844726562501C73.58632001953126,89.900177265625,80.87492001953125,83.845947265625,89.86582001953124,83.845947265625Z"
                                    fill="#5D94F3" fill-opacity="1" />
                            </g>
                        </g>
                    </g>
                </g>
            </g>
        </g>
    </g>
</svg>